<svg version="1.1" id="Layer_1" xmlns="http://www.w3.org/2000/svg" xmlns:xlink="http://www.w3.org/1999/xlink" x="0px" y="0px"
	 width="100%" viewBox="0 0 1024 1024" enable-background="new 0 0 1024 1024" xml:space="preserve">
<rect width="1024" height="1024" fill="#E85112"/>
<path fill="#000000" opacity="1.000000" stroke="none"
	d="
M218.266357,706.564209
	C208.970810,671.843445 204.857895,636.908691 205.724091,601.388489
	C206.415131,573.050964 212.656143,545.872986 224.174072,520.081482
	C233.889633,498.325928 242.344849,476.032532 252.418686,454.452484
	C266.566101,424.146057 284.439850,396.043762 304.742340,369.520844
	C344.443146,317.656372 391.684845,273.554443 444.525330,235.403488
	C476.904236,212.025848 511.833221,193.012787 548.209595,176.578049
	C574.965149,164.489975 602.323608,154.072464 630.498474,145.824707
	C656.388489,138.245789 682.584778,131.807953 709.146057,127.188744
	C727.020935,124.080177 744.067932,126.508720 758.015869,139.824860
	C764.786072,146.288330 769.873474,154.045090 772.843689,162.711746
	C783.365356,193.412170 796.068420,223.365723 804.541565,254.767105
	C813.623535,288.424835 819.158203,322.673828 822.486389,357.369476
	C826.799011,402.326965 825.887573,447.177582 821.097778,491.996094
	C817.190125,528.559631 808.148010,563.948853 796.896240,598.912720
	C783.047424,641.946533 763.987061,682.569397 741.800659,721.790039
	C726.056946,749.621460 706.459229,774.635864 684.388733,797.750183
	C671.274292,811.484863 658.444275,825.511902 642.567749,836.225220
	C636.765930,840.140137 630.764709,843.740417 624.371277,846.627686
	C611.647034,852.373840 601.053589,861.417236 589.573608,869.084900
	C566.390137,884.569580 541.297058,895.527527 513.555481,899.039490
	C487.752350,902.306030 462.061737,900.157715 436.584747,894.849365
	C415.961029,890.552124 396.415192,882.803101 376.322083,876.816895
	C366.590454,873.917603 356.798981,871.218933 347.030243,868.444763
	C333.891754,864.713562 322.278687,858.197266 313.440979,847.794617
	C296.072754,827.350891 276.586273,808.809265 259.909424,787.761902
	C240.737900,763.566040 226.944443,736.605896 218.266357,706.564209
M517.145142,845.802002
	C497.813049,854.559265 476.482849,856.843445 456.333832,864.254883
	C486.334442,875.935547 558.508789,859.357239 578.598267,836.254944
	C577.374268,835.956055 576.269470,835.412781 575.195740,835.468384
	C567.893494,835.846436 560.588013,836.237976 553.304749,836.869629
	C550.410400,837.120544 548.080383,837.126892 547.265381,832.465332
	C551.959167,834.768494 551.941772,829.439636 555.027527,828.767578
	C560.878906,827.493103 566.689819,826.033752 572.532715,824.719055
	C580.989075,822.816406 589.852356,823.720825 598.201721,821.158386
	C611.427795,817.099365 623.122314,810.112671 634.150146,801.924866
	C638.059204,799.022583 642.188965,796.310669 645.024170,791.312683
	C633.943542,793.432434 623.784241,797.729309 611.962708,795.842224
	C613.769653,794.070557 614.925049,792.697266 616.310303,791.619263
	C624.065308,785.583923 633.257935,782.571045 642.320923,779.226135
	C653.594360,775.065491 664.947693,770.773438 673.255981,761.566467
	C695.304016,737.133789 712.120544,709.185669 727.233826,680.136597
	C728.096436,678.478516 729.531189,676.790833 728.467102,674.297607
	C714.433838,676.180786 700.703064,679.262146 687.242493,684.153870
	C691.755554,675.598999 698.583008,669.933960 707.500854,666.955383
	C716.342468,664.002258 725.295715,661.378601 734.229370,658.708923
	C737.664673,657.682312 739.795898,655.634521 741.333862,652.333679
	C748.234802,637.522766 754.403015,622.409851 759.881409,607.035095
	C773.155396,569.782654 783.800659,531.848938 788.510986,492.448090
	C789.370422,485.258789 790.098938,478.053833 791.041809,469.451935
	C786.687805,474.622406 784.928955,479.791077 780.866028,483.998535
	C779.798584,481.973969 777.439453,482.913849 776.313904,481.361511
	C777.849426,469.898254 782.309448,459.454529 786.003906,448.789459
	C790.761414,435.055328 794.898438,421.333771 793.774170,406.409607
	C792.924683,395.133759 792.629944,383.805115 791.760254,372.515198
	C790.173584,351.916992 787.711487,331.412476 784.210693,311.070526
	C779.856567,285.769958 773.555481,260.908051 765.390015,236.549911
	C762.893005,229.101166 760.589355,221.556030 756.925354,213.708740
	C754.797913,220.414154 755.394409,226.467850 754.753296,232.378708
	C753.724976,241.860687 753.640808,251.320099 756.788391,260.544952
	C759.423157,268.266693 761.831116,276.066010 764.480286,283.782623
	C772.731323,307.816254 776.156616,332.296234 771.161011,357.496399
	C768.648376,370.171326 765.929810,382.563293 766.866516,395.870361
	C767.739624,408.272766 761.484985,420.046570 759.182190,432.291779
	C758.397705,436.463104 755.093750,439.757690 750.116394,439.313110
	C745.758606,438.923920 743.198730,435.130829 742.939331,429.303894
	C742.699585,423.918854 744.041016,418.714661 745.067017,413.497040
	C746.106201,408.212158 745.390625,403.262878 742.991516,398.504822
	C738.901733,390.394012 739.692993,386.136108 746.714172,380.071930
	C749.296143,377.841888 751.459290,375.488800 752.395752,372.088959
	C757.506958,353.530975 761.532104,334.848541 758.724854,315.425476
	C757.509033,307.013519 756.382874,298.554443 752.757141,290.677032
	C752.381531,293.184998 752.319580,295.643677 752.391357,298.098511
	C752.967407,317.807037 751.336914,337.060577 741.403748,354.755981
	C739.332947,358.444977 736.643860,361.212891 732.384644,363.649139
	C732.195862,357.686737 731.811096,352.489349 732.937622,347.265747
	C734.620850,339.460632 736.280884,331.670349 736.926575,323.658844
	C738.827515,300.072906 737.028381,276.387817 739.545959,252.779861
	C741.501282,234.443802 741.355896,215.883392 744.646118,197.656204
	C746.582031,186.931732 745.485291,176.780563 739.732910,167.349335
	C736.122803,161.430557 733.092712,161.331894 729.932983,167.540665
	C722.892761,181.374557 714.147827,194.169342 706.003052,207.319046
	C700.320496,216.493423 694.446350,225.641098 686.963440,233.528168
	C684.897888,235.705292 682.883606,238.402771 678.435303,238.496323
	C683.201904,222.120712 690.074707,207.208069 698.837585,193.020676
	C686.955505,202.040039 674.715576,210.036636 661.754089,216.937897
	C659.646606,218.060028 657.390808,220.828598 655.257568,218.359833
	C653.107788,215.871948 654.997864,213.032089 656.880737,210.780396
	C657.625793,209.889374 658.498108,209.100052 659.348022,208.302307
	C677.114685,191.626968 696.022339,176.383453 716.293091,162.840912
	C717.506714,162.030136 719.196777,161.478912 719.631226,159.432312
	C715.235413,159.109055 711.325073,160.064926 707.453247,160.861725
	C670.214661,168.525330 633.550415,178.227524 597.827515,191.391495
	C573.231201,200.455292 549.580444,210.799438 532.542542,232.020752
	C529.981750,235.210327 526.386230,237.603592 522.706970,239.626633
	C521.366638,240.363571 520.070557,241.095810 518.587097,239.844635
	C517.122009,238.608932 517.596619,237.295486 518.066162,235.780991
	C518.862671,233.211685 520.697876,230.884903 520.346130,227.501480
	C513.836426,229.949112 508.464752,233.622070 502.922363,236.866638
	C467.290253,257.726227 434.516449,282.447998 403.709351,309.921844
	C387.985291,323.944580 373.588989,338.351440 367.912384,359.748627
	C364.868591,371.221954 357.226227,380.328156 346.389832,387.798035
	C346.982788,378.343201 352.162262,370.910858 353.626007,361.544067
	C352.148438,362.882843 351.345337,363.459229 350.727631,364.191895
	C322.034393,398.224854 297.036377,434.688904 278.374542,475.235748
	C274.492950,483.669373 270.009216,492.158630 269.360443,501.576202
	C268.501068,514.050781 269.202789,526.522949 272.438202,538.749268
	C274.345551,545.956787 274.536560,553.355591 273.593262,561.064636
	C264.480652,551.507202 261.844086,538.717590 256.873108,526.624756
	C254.007614,530.293152 253.221191,534.437561 251.716476,538.199158
	C239.742218,568.133362 235.693802,599.215332 238.478424,631.270996
	C239.374496,641.586365 245.461655,649.884155 249.285431,659.021362
	C253.711075,669.596741 259.379120,679.652039 264.499146,689.937439
	C265.238892,691.423523 266.322906,693.104614 264.616302,694.445190
	C263.207611,695.551636 261.776215,694.306580 260.477600,693.637878
	C256.811615,691.749878 254.383453,688.584412 251.852631,685.456177
	C249.780777,682.895203 248.457565,679.585388 244.433990,677.316711
	C251.219254,717.480347 268.996582,750.873596 296.291534,780.273315
	C296.944458,778.007019 296.157043,776.865906 295.677399,775.669495
	C292.516785,767.786011 289.280029,759.932129 286.205444,752.015320
	C278.882477,733.159180 276.658417,713.754395 279.323212,693.639771
	C280.368103,685.752319 282.524445,677.828613 281.539062,669.825317
	C280.136993,658.437744 282.149841,647.674927 285.640808,636.927124
	C286.827423,633.273865 289.543488,631.213745 291.878052,628.760254
	C293.488312,627.068054 295.520233,627.782227 295.797974,630.260376
	C296.221741,634.041016 296.526306,637.883240 296.348389,641.674255
	C295.748322,654.459717 294.203033,667.249695 298.589783,679.764587
	C301.234924,687.310913 303.092102,695.086670 304.612732,702.943970
	C305.080566,705.361206 304.892242,707.602295 303.723206,709.717285
	C301.785370,713.223145 299.278473,713.367065 296.709625,710.304626
	C295.379272,708.718628 295.058289,706.316162 292.811340,705.333252
	C291.513855,707.046875 292.022614,708.914673 291.989960,710.677368
	C291.739624,724.202942 294.672363,737.120117 299.522949,749.660400
	C305.828613,765.962585 313.743042,781.676880 318.417725,798.560669
	C321.134186,808.371948 328.676178,814.046082 334.921387,821.860229
	C337.275543,816.271240 338.113251,811.220947 338.762238,806.176941
	C340.355713,793.792786 341.488556,781.335754 345.726654,769.454224
	C347.436768,764.659973 349.360962,759.710938 354.653320,758.193542
	C358.516724,757.085815 360.483704,754.618958 362.146576,751.553223
	C368.696899,739.476929 377.692474,729.513916 388.586212,721.293640
	C393.550446,717.547607 396.407837,712.784241 397.567841,706.832642
	C398.596436,701.555115 400.699615,696.666931 402.907288,691.810730
	C409.145660,678.088501 419.342224,666.739746 425.994812,653.258911
	C428.722504,647.731506 431.483887,642.163513 435.412476,637.379639
	C438.574585,633.529053 442.411804,630.406433 448.084564,628.544495
	C446.180115,635.142090 444.511353,640.696289 442.976196,646.287170
	C439.391907,659.340881 434.622406,671.807739 427.745758,683.611633
	C419.246704,698.200623 411.649506,713.335754 414.934601,731.245605
	C415.108704,732.194702 414.849304,733.236755 414.719604,734.226074
	C412.166565,753.695984 401.160278,765.623840 381.513153,769.829102
	C378.183044,770.541931 375.650269,771.961060 373.586731,774.515747
	C369.805298,779.197021 366.046600,783.965332 364.055420,789.687378
	C359.622070,802.427368 354.392456,814.839172 349.254211,827.296936
	C346.869507,833.078613 348.352692,835.216003 354.746033,834.802246
	C362.917053,834.273438 370.815033,832.674927 377.720612,827.593567
	C399.764252,811.373169 423.064697,797.807434 450.579529,792.940491
	C468.051361,789.850098 482.722229,781.733826 494.370117,767.989136
	C501.259247,759.859802 509.098755,752.540894 518.668945,747.425903
	C521.674683,745.819519 524.736572,744.525696 528.771973,745.218750
	C525.875122,749.470276 524.189148,753.778625 520.882935,757.213440
	C515.225281,763.091125 509.521515,768.985168 504.467346,775.371155
	C491.233948,792.091797 473.785675,801.581604 453.381470,806.351929
	C436.738464,810.242981 420.800201,815.944946 406.200012,825.001892
	C405.229980,825.603638 403.722382,825.850098 403.641479,827.557251
	C409.535919,828.216064 415.040497,827.387085 420.543396,825.703003
	C424.243073,824.570740 428.823944,822.009338 430.219147,828.855408
	C430.338867,829.443115 431.827972,830.000061 432.746063,830.137939
	C441.201508,831.408081 449.119415,834.611755 457.260468,836.981201
	C461.482971,838.210144 466.820465,837.624512 469.007233,843.125366
	C469.451477,844.242798 471.140717,843.791931 472.255219,843.558289
	C490.978882,839.633545 509.931335,836.492859 526.969299,826.948792
	C529.994019,825.254517 533.271362,823.704163 536.623230,823.008240
	C538.877502,822.540222 542.304321,819.988525 543.768433,823.386108
	C544.983704,826.206360 542.041260,828.440613 540.065125,830.383301
	C533.575134,836.763367 525.783325,841.249756 517.145142,845.802002
M453.521393,848.880005
	C456.038116,848.178040 458.554871,847.476135 461.831970,846.562134
	C435.040497,841.776428 409.145660,836.829773 381.748505,843.504883
	C394.131378,847.791748 405.593628,851.716492 417.021301,855.739380
	C421.120605,857.182373 425.137756,857.154297 429.265503,855.924683
	C437.079742,853.596863 444.924347,851.370911 453.521393,848.880005
z"/>
<path fill="#000000" opacity="1.000000" stroke="none"
	d="
M312.017944,753.120361
	C313.344849,737.242920 314.037292,721.770203 317.446899,706.592957
	C319.154144,698.993652 321.913635,691.794678 326.526215,685.654724
	C336.220276,672.750610 340.668640,658.438782 340.680725,642.364380
	C340.690277,629.625122 346.294830,618.911194 354.643188,609.560669
	C358.080505,605.710693 361.512054,601.835510 365.206635,598.239258
	C374.034698,589.646179 376.486694,578.303162 379.769226,567.053589
	C386.055420,545.510254 396.841095,526.631714 415.461975,513.117065
	C420.151367,509.713623 423.799316,505.341614 426.461761,500.346191
	C433.340240,487.440399 444.686371,479.364166 456.522552,471.784424
	C459.613220,469.805176 463.099762,468.790527 466.882294,468.504883
	C474.245117,467.948853 479.034973,473.731995 476.855774,480.945465
	C475.708191,484.744141 473.208252,487.722168 470.355988,490.270966
	C461.711456,497.995636 455.585052,506.941620 452.583862,518.486084
	C449.495575,530.365479 441.152954,535.375793 428.886902,534.287842
	C422.792725,533.747314 418.523102,536.328613 415.314270,540.957581
	C407.310516,552.503601 400.467072,564.536560 397.836884,578.691711
	C395.762146,589.857544 390.646637,599.791992 382.712311,608.049194
	C376.884125,614.114563 372.048309,620.986694 365.022949,626.119385
	C359.388306,630.236084 358.004700,637.577393 357.270813,644.511780
	C357.113220,646.000732 356.980103,647.505249 357.009949,648.999084
	C357.317596,664.400024 349.408936,676.710632 341.267395,688.593384
	C334.009155,699.186829 329.632568,710.355896 328.083191,723.097961
	C326.539001,735.797180 324.209106,748.427551 321.157928,760.892761
	C320.190277,764.845825 317.013153,767.517151 316.089417,771.601807
	C312.116425,765.758972 312.151398,759.656189 312.017944,753.120361
z"/>
<path fill="#000000" opacity="1.000000" stroke="none"
	d="
M732.609985,515.777954
	C735.324768,506.610931 737.640869,497.733276 741.961853,489.564240
	C743.386169,486.871490 745.065918,484.581818 748.500549,485.849731
	C751.582397,486.987396 750.945251,489.574219 750.662781,492.177338
	C749.821472,499.929016 749.244751,507.709381 748.454224,516.739807
	C752.685120,512.630066 754.836792,508.494293 756.568726,504.143524
	C759.371704,497.102356 760.074341,489.621124 760.864624,482.167633
	C761.354858,477.544006 761.481750,472.818573 763.852661,468.625122
	C764.879211,466.809448 765.550964,464.077362 768.243042,464.528290
	C770.668457,464.934448 771.219421,467.579163 771.697571,469.596741
	C774.076538,479.636047 773.796326,489.704987 771.812439,499.800262
	C768.804993,515.103577 759.278137,526.424194 748.966309,537.200012
	C746.309631,539.976257 744.276367,542.802063 743.815002,546.596680
	C740.472656,574.087524 728.834229,597.846863 711.215149,618.876709
	C706.329468,624.708313 703.947998,631.593628 702.526794,638.806641
	C699.627686,653.520203 691.671875,664.339172 678.456055,671.309570
	C675.969482,672.621094 674.331787,674.607483 673.029846,676.990051
	C666.425415,689.075867 656.913269,698.541382 646.010254,706.700989
	C644.191101,708.062317 642.032471,709.244751 639.851501,709.781860
	C636.780945,710.538147 635.535461,709.132568 636.547424,705.865784
	C638.152771,700.683289 641.040649,696.220825 644.062683,691.827209
	C646.705566,687.984924 649.520264,684.260864 652.171509,680.424194
	C657.394287,672.866333 660.055603,664.903625 660.066833,655.279236
	C660.082092,642.188538 668.472107,621.826111 686.150452,616.781860
	C687.649963,616.354004 688.962585,615.636353 689.892334,614.424622
	C701.228027,599.652100 713.627869,585.640503 719.903076,567.526489
	C724.455627,554.384705 726.319580,540.677856 729.658020,527.290527
	C730.583862,523.578064 731.567444,519.879883 732.609985,515.777954
z"/>
<path fill="#000000" opacity="1.000000" stroke="none"
	d="
M657.615417,479.436340
	C654.306152,485.073425 651.198792,490.391174 648.060913,495.690857
	C647.062805,497.376648 646.326843,499.379425 643.560059,498.431152
	C640.697693,497.450165 640.832214,495.462891 641.423767,493.205048
	C642.604431,488.698944 643.660950,484.153229 645.037964,479.707275
	C646.881104,473.756378 648.251892,467.760437 646.657227,461.589569
	C644.660522,453.862701 647.121704,447.146759 650.885742,440.664581
	C652.975098,437.066254 655.226501,433.562408 657.367249,429.993408
	C663.157166,420.340607 667.299744,410.098511 669.222046,398.923798
	C672.615845,379.195099 678.283508,360.045349 684.681335,341.112366
	C691.901794,319.744965 695.956421,297.676727 699.799927,275.526245
	C702.554688,259.650299 708.176208,244.771194 717.214783,231.290604
	C718.908081,228.765152 720.979004,227.692902 724.088440,228.625443
	C725.349670,230.920746 724.046509,233.096832 723.477112,235.233521
	C720.904907,244.884811 718.287781,254.525650 715.539551,264.128082
	C712.166992,275.911530 711.739502,288.126099 710.629456,300.173401
	C708.753479,320.532013 704.557190,340.307648 697.975708,359.582123
	C692.197144,376.504822 690.002869,394.262268 685.332581,411.433899
	C681.609619,425.122559 675.545593,437.591797 666.352417,448.461304
	C663.457397,451.884155 661.925476,455.574219 662.034302,460.281097
	C662.185242,466.807281 660.696411,473.165619 657.615417,479.436340
z"/>
<path fill="#000000" opacity="1.000000" stroke="none"
	d="
M536.966370,244.787231
	C541.265564,244.123962 545.156982,244.045273 549.408997,244.385803
	C548.826904,248.721924 545.485413,250.393127 542.781311,252.149155
	C533.296021,258.308868 523.624023,264.183563 513.976685,270.090912
	C492.042694,283.521729 474.361420,301.369812 459.603516,322.270050
	C457.546112,325.183685 456.509125,328.369049 456.110382,331.983429
	C455.337463,338.989655 452.829041,345.579742 449.696411,351.830994
	C447.446075,356.321503 443.527344,359.362457 438.509888,360.257263
	C432.690186,361.295166 427.349274,363.312531 422.179993,366.147064
	C415.935211,369.571289 409.333832,368.994080 406.017639,365.171051
	C401.945709,360.476929 401.915833,354.516296 406.352264,348.160828
	C412.640472,339.152496 420.806091,332.084564 430.259094,326.594025
	C435.336609,323.644836 438.785828,319.362488 442.108612,314.711609
	C463.607788,284.619476 490.896423,261.715088 525.572205,248.139221
	C529.120422,246.750061 532.889587,245.925278 536.966370,244.787231
z"/>
<path fill="#000000" opacity="1.000000" stroke="none"
	d="
M625.457642,248.479584
	C617.094727,255.645905 609.061279,262.656647 600.857056,269.461487
	C592.937317,276.030396 586.758362,284.019745 581.047668,292.476776
	C578.659485,296.013397 579.356384,299.859344 579.327698,303.615356
	C579.260864,312.371765 576.009583,319.411346 568.970581,324.751404
	C564.457886,328.174957 559.242004,329.527710 553.906128,329.005402
	C544.984741,328.132111 538.920349,332.085571 534.032471,338.898529
	C531.984802,341.752686 529.756531,344.466583 526.540771,346.114777
	C523.561462,347.641785 520.390381,348.249481 517.507751,346.261993
	C514.468567,344.166565 513.876587,340.840179 514.314880,337.358093
	C515.097168,331.143219 519.099121,326.775146 523.338989,322.773407
	C526.713196,319.588776 529.043335,315.906342 530.847107,311.738464
	C535.823975,300.238495 544.459656,292.485565 556.058960,288.209167
	C561.126099,286.341034 565.162537,283.618134 568.326477,279.288177
	C582.889587,259.358124 602.758667,245.652328 623.292969,232.775604
	C628.648621,229.417160 634.305969,226.542465 639.698975,223.240158
	C642.192383,221.713379 644.036926,222.047623 645.773560,224.187912
	C647.633728,226.480469 646.293091,228.072067 644.693665,229.781250
	C638.656128,236.233185 632.537598,242.595078 625.457642,248.479584
z"/>
<path fill="#000000" opacity="1.000000" stroke="none"
	d="
M473.105347,718.068298
	C478.072845,711.156677 482.996735,704.634888 487.540955,697.858582
	C492.618805,690.286499 499.400848,684.339844 505.850952,678.105469
	C512.543335,671.636841 517.713623,664.189026 521.943237,655.993103
	C527.056641,646.084351 533.901855,637.447937 542.453064,630.412292
	C558.488159,617.219055 570.554077,601.174866 578.730896,582.157288
	C580.668457,577.650879 583.527527,573.800171 586.605469,570.064087
	C588.007019,568.362854 589.558167,567.616150 591.852051,568.499756
	C594.207031,569.406799 594.587646,571.017639 594.437073,573.233276
	C592.739685,598.207642 583.926941,619.873596 564.695923,636.554260
	C553.050232,646.655579 542.146790,657.278198 535.199768,671.366150
	C530.362427,681.175781 522.060791,688.065796 514.114258,695.156250
	C509.004974,699.715027 503.964691,704.299133 499.700348,709.674255
	C495.620789,714.816528 490.652405,719.129333 485.324097,722.743835
	C480.827850,725.794067 475.399933,727.250793 469.993256,723.838928
	C469.451660,721.146729 471.857635,720.103577 473.105347,718.068298
z"/>
<path fill="#000000" opacity="1.000000" stroke="none"
	d="
M661.471924,725.360107
	C655.532104,733.571777 647.055237,738.197632 639.153503,743.325195
	C633.770813,746.818115 629.761292,751.205688 626.430298,756.392761
	C620.079041,766.283081 611.866211,772.667603 599.414307,772.141968
	C593.907104,771.909607 590.159546,775.710327 586.600647,779.131897
	C576.536743,788.807617 564.708130,794.640869 550.936218,796.768738
	C548.744995,797.107361 547.024109,797.445129 546.025208,794.971497
	C544.988525,792.404480 545.528076,790.376038 548.000793,789.059204
	C562.824951,781.165283 573.602966,768.503479 585.761047,757.416260
	C596.100403,747.987549 606.702332,738.911621 614.756470,727.321533
	C614.850037,727.186890 614.989807,727.084473 615.106628,726.965698
	C623.703979,718.224792 629.650452,718.551086 637.205383,728.311829
	C646.877930,726.816956 653.581787,717.048035 664.413757,717.633240
	C664.346069,720.864197 662.616882,722.807922 661.471924,725.360107
z"/>
<path fill="#000000" opacity="1.000000" stroke="none"
	d="
M335.451660,523.678894
	C339.424683,529.276794 339.150482,535.080444 337.050842,540.683838
	C334.315582,547.983398 331.186493,555.158325 327.811768,562.187683
	C325.295898,567.428101 320.950806,571.164001 315.735748,573.711548
	C311.197937,575.928284 307.988159,579.317139 305.723114,583.768066
	C304.139587,586.879700 302.433105,589.933350 300.674133,592.950195
	C296.811920,599.574158 293.621582,606.873596 284.677582,608.847717
	C281.120728,603.880371 283.486267,598.220703 284.265259,592.890564
	C285.303284,585.787598 288.450623,579.167358 291.387421,572.722412
	C294.200500,566.549072 295.647400,560.299072 296.631104,553.726501
	C298.987518,537.982117 308.987366,527.988770 322.350098,520.885315
	C326.959686,518.434998 331.407593,519.960266 335.451660,523.678894
z"/>
<path fill="#000000" opacity="1.000000" stroke="none"
	d="
M448.750549,422.816284
	C456.012299,413.257629 464.456268,406.133331 476.327820,403.793182
	C479.194000,403.228241 481.760742,401.285767 484.597137,400.398834
	C490.673218,398.498932 495.573181,401.582886 496.875549,407.760468
	C499.186676,418.722656 487.990723,439.658691 475.127991,441.684937
	C472.006653,442.176605 469.004272,442.024902 466.287384,441.086212
	C461.517456,439.438202 457.362976,439.907440 452.938568,442.199921
	C449.240814,444.115936 445.543488,444.016235 443.041046,439.717712
	C442.121216,438.137756 441.920502,436.727203 442.411041,434.995544
	C443.654663,430.605560 445.538574,426.574493 448.750549,422.816284
z"/>
<path fill="#000000" opacity="1.000000" stroke="none"
	d="
M387.269958,404.577576
	C387.507324,405.491455 387.764069,406.334229 387.451935,406.755463
	C379.936554,416.898590 377.009338,429.680054 368.518799,439.302979
	C364.242157,444.150055 358.474243,446.354340 353.053894,449.131378
	C346.298920,452.592224 341.371307,457.470825 337.504913,464.038208
	C332.789764,472.047302 327.212372,479.550171 321.969971,487.246124
	C321.175507,488.412384 320.522614,490.305176 318.629822,489.489777
	C316.511322,488.577240 318.140045,486.987854 318.301086,485.636688
	C320.610992,466.255920 329.738892,450.212463 342.363403,435.788483
	C344.178314,433.714935 345.057678,430.843689 346.499115,428.418396
	C351.624512,419.794586 358.308075,413.273438 368.746796,411.537292
	C372.486542,410.915283 375.032410,407.946869 377.941925,405.764648
	C380.715820,403.684082 383.550537,402.009064 387.269958,404.577576
z"/>
<path fill="#000000" opacity="1.000000" stroke="none"
	d="
M623.966675,210.037613
	C607.269165,218.350800 591.734192,228.194092 574.414368,234.407013
	C572.398804,235.130035 570.380859,235.846451 568.442749,236.537857
	C565.712708,232.465729 566.824402,229.898315 570.141174,226.792374
	C591.650391,206.650467 617.725281,194.777252 644.904419,184.842163
	C651.771973,182.331772 658.814697,180.452057 666.069580,179.231369
	C669.000977,178.738129 670.645386,179.763977 671.830017,181.796310
	C673.237488,184.210876 671.068481,185.335495 669.462341,186.499771
	C661.995239,191.912476 653.514709,195.421692 645.284851,199.411804
	C638.251282,202.821915 631.288879,206.378845 623.966675,210.037613
z"/>
<path fill="#000000" opacity="1.000000" stroke="none"
	d="
M722.130554,469.663452
	C719.056458,482.169891 712.326172,492.561035 706.865540,503.523071
	C706.225098,504.808716 704.980835,505.853882 703.857971,506.827637
	C700.391663,509.833466 696.524231,511.600098 691.979431,509.431763
	C687.231445,507.166443 685.732971,502.589203 686.407532,498.111511
	C687.916443,488.094482 691.270020,478.650726 699.853088,472.258240
	C705.542603,468.020844 708.076172,463.072174 705.925659,455.898560
	C704.169495,450.040222 704.442139,444.069641 706.675537,438.262299
	C707.404541,436.366791 708.166931,434.563660 710.245911,433.397797
	C713.215454,434.156830 715.028809,435.735687 715.797852,439.188934
	C717.271729,445.807404 719.446655,452.266541 721.167969,458.834412
	C722.053833,462.214600 722.478271,465.696838 722.130554,469.663452
z"/>
<path fill="#000000" opacity="1.000000" stroke="none"
	d="
M584.771545,470.820374
	C586.773926,468.794434 588.429688,466.904938 590.345154,465.331512
	C591.914124,464.042633 593.825562,463.252563 595.883301,464.482574
	C598.111328,465.814301 599.077209,467.821686 598.771729,470.380859
	C598.654541,471.362946 598.531799,472.449707 598.040710,473.265564
	C592.868530,481.858429 592.157227,491.876251 589.146118,501.154663
	C586.456970,509.441193 582.221863,516.575378 576.170288,522.747131
	C572.974792,526.006042 569.167419,527.702393 564.915955,525.735657
	C560.641052,523.758057 560.116699,519.448303 560.804688,515.371765
	C561.632080,510.469666 562.721375,505.642914 563.088440,500.641663
	C563.318054,497.512207 564.952698,494.552826 567.311523,492.317688
	C573.988159,485.991028 579.722839,478.921082 584.771545,470.820374
z"/>
<path fill="#000000" opacity="1.000000" stroke="none"
	d="
M652.339294,592.439819
	C655.357483,588.212219 658.355469,584.406494 660.942444,580.339294
	C663.502258,576.314697 665.244202,572.443726 660.946167,567.834412
	C656.890564,563.485168 658.558594,556.852112 663.711792,552.928284
	C668.510132,549.274658 677.056763,550.678833 680.707214,555.876465
	C684.531311,561.321289 683.487793,567.115234 682.015991,573.121216
	C678.442017,587.705322 667.463562,596.597412 657.242126,606.087463
	C654.235718,608.878784 651.088745,611.566895 647.325562,613.635986
	C645.928040,605.832642 648.308411,599.122314 652.339294,592.439819
z"/>
<path fill="#000000" opacity="1.000000" stroke="none"
	d="
M584.101868,676.089111
	C586.464355,673.752991 588.743958,672.071655 591.891235,673.364685
	C595.335938,674.779907 596.892700,677.596191 597.232544,681.163757
	C597.890747,688.072510 595.843140,694.273560 592.382080,700.165100
	C588.610413,706.585327 583.531921,711.806824 577.793091,716.415039
	C574.590881,718.986328 570.804565,720.185425 567.187012,717.649475
	C563.818909,715.288269 562.763428,711.729126 563.591553,707.494141
	C564.670715,701.975281 567.574524,697.456482 571.643616,694.037292
	C576.503784,689.953491 580.513184,685.629822 581.958984,679.270264
	C582.199097,678.214111 583.201050,677.331055 584.101868,676.089111
z"/>
<path fill="#000000" opacity="1.000000" stroke="none"
	d="
M511.764557,791.767578
	C514.118713,790.574341 515.857361,788.759827 518.693359,789.351196
	C519.710327,791.700989 519.219666,793.671570 517.326599,795.499268
	C501.192291,811.076233 482.935577,822.613770 460.204895,825.728394
	C454.904205,826.454651 449.601379,826.472534 444.293030,825.958862
	C441.711731,825.709045 439.579651,824.718201 438.318420,821.517944
	C446.037476,819.265564 453.380859,816.810364 460.880371,815.003296
	C474.119202,811.813538 486.268646,806.251831 497.878845,799.281616
	C502.281250,796.638733 506.902313,794.360046 511.764557,791.767578
z"/>
<path fill="#000000" opacity="1.000000" stroke="none"
	d="
M620.763184,350.761841
	C621.411133,342.454102 621.709534,334.537201 622.867249,326.748016
	C623.711548,321.067444 626.719910,316.162445 631.131226,312.270294
	C634.023926,309.717987 637.325195,308.851379 640.829468,310.475616
	C644.437256,312.147858 645.464600,315.459595 645.338928,319.225128
	C645.229736,322.496796 644.290527,325.655884 642.221497,328.033997
	C637.491943,333.470093 635.084717,339.941833 632.854065,346.585510
	C632.117188,348.780212 631.101501,350.914459 629.955200,352.929504
	C628.741333,355.063232 626.998718,356.419769 624.214539,355.934448
	C621.410706,355.445679 620.937439,353.497498 620.763184,350.761841
z"/>
<path fill="#000000" opacity="1.000000" stroke="none"
	d="
M506.913971,548.977539
	C509.260559,551.593384 510.527100,554.270264 510.179871,557.437744
	C509.196381,566.409668 505.397736,574.294189 500.419098,581.646912
	C499.296204,583.305298 497.465576,584.435303 495.232208,583.850647
	C492.551056,583.148865 492.416443,580.744141 492.240875,578.646301
	C491.874603,574.270081 494.027039,570.327087 494.928284,566.160461
	C494.414612,566.012634 494.070251,565.783142 493.841064,565.867249
	C490.640015,567.043091 487.224213,568.338196 484.798676,564.867798
	C482.397888,561.432739 485.448425,558.936707 487.249817,556.564453
	C489.760773,553.257812 492.751648,550.350708 496.448822,548.287048
	C499.938507,546.339111 503.341095,545.966431 506.913971,548.977539
z"/>
<path fill="#000000" opacity="1.000000" stroke="none"
	d="
M548.388672,408.701172
	C544.506104,405.104034 544.463013,401.060608 545.667786,396.603912
	C548.627197,385.657379 554.427673,377.371155 565.881042,374.081177
	C568.078125,373.450043 570.535583,373.065277 571.757751,375.174225
	C573.074646,377.446503 575.445923,380.121368 573.145996,382.943237
	C566.830811,390.691498 562.108704,399.480469 556.522583,407.699036
	C554.559143,410.587646 551.496094,409.509033 548.388672,408.701172
z"/>
<path fill="#000000" opacity="1.000000" stroke="none"
	d="
M400.753601,442.272186
	C408.930847,441.416260 414.387878,447.854645 412.264923,455.310974
	C411.210663,459.013885 409.709473,462.480713 406.725769,465.119232
	C403.886536,467.629944 400.625092,468.510284 397.055664,467.289429
	C393.474976,466.064728 392.094635,462.900879 391.777069,459.526154
	C391.081085,452.129944 393.816925,446.266296 400.753601,442.272186
z"/>
</svg>
